<svg version="1.0" id="Layer_1"
  xmlns="http://www.w3.org/2000/svg"
  xmlns:xlink="http://www.w3.org/1999/xlink" x="0px" y="0px" viewBox="0 0 45 40" style="enable-background:new 0 0 50 50;" xml:space="preserve">
  <style type="text/css">
	.st0{fill:none;}
	.st1{fill:#ffffff;}
  </style>
  <g id="XMLID_1_">
    <path id="XMLID_68_" class="st0" d="M24.8,28.3l0,0.3c0,0.5-0.1,1-0.2,1.5c-0.2,0.5-0.4,1-0.7,1.4c-0.3,0.4-0.7,0.8-1.2,1
		c-0.5,0.3-1.1,0.5-1.8,0.6c-1.3,0.2-2.3-0.1-2.9-0.8c-0.7-0.7-1-1.9-1-3.4l0-3.2c0-1.4,0.3-2.6,1-3.6c0.6-1,1.6-1.6,2.9-1.8
		c0.7-0.1,1.3-0.1,1.8,0c0.5,0.1,0.9,0.4,1.2,0.7c0.3,0.3,0.5,0.7,0.7,1.2c0.2,0.5,0.2,0.9,0.3,1.5l0,0.3l2-0.3l0-0.3
		c0-0.8-0.1-1.5-0.4-2.2c-0.3-0.7-0.6-1.2-1.1-1.6c-0.5-0.4-1.1-0.7-1.8-0.9c-0.7-0.2-1.6-0.2-2.5,0c-1.9,0.3-3.1,1.1-4.1,2.4
		c-1,1.3-1.3,2.9-1.3,4.9v3.4c0,2.1,0.3,3.6,1.3,4.5c1,0.9,2.4,1.3,4.2,1c1-0.1,1.8-0.4,2.5-0.8c0.7-0.4,1.3-0.9,1.8-1.5
		c0.5-0.6,0.9-1.3,1.1-2c0.3-0.7,0.4-1.5,0.4-2.3l0-0.3L24.8,28.3z"/>
    <path id="XMLID_168_" class="st0" d="M94.6,23.3h-2.1v11h2.1c1.1,0,2.1-0.6,2.8-1.3c0.6-0.7,1.1-1.9,1.1-3.1v-2.5
		c0-1.2-0.5-2.2-1.1-2.9C96.8,23.7,95.7,23.3,94.6,23.3z"/>
    <polygon id="XMLID_169_" class="st0" points="23.5,24.2 23.5,22.8 18.5,23.4 18.5,31.2 20.5,31.1 20.5,27.8 23.5,27.5 23.5,26 
		20.5,26.4 20.5,24.6 	"/>
    <path id="XMLID_174_" class="st0" d="M11,13.9c0.1-0.9,0.1-2.7-1.6-4.3L8.7,9.3c0.5,1.1,1,2.7,1,4.3L11,13.9z"/>
    <path id="XMLID_175_" class="st0" d="M41,29.9c1.2,0,2.5-2.4,2.5-5.7c0-3.3-1.3-5.7-2.5-5.7s-2.5,2.4-2.5,5.7
		C38.5,27.5,39.8,29.9,41,29.9z"/>
    <path id="XMLID_176_" class="st0" d="M32.2,11.7c0.3-1.7,0.6-5.6-2.7-8.7l-2.3-1c0.9,1.8,2.1,5,2.1,8.4L32.2,11.7z"/>
    <path id="XMLID_177_" class="st0" d="M123,23.3h-2.5v4h2.4c0.8,0,1.5,0.1,1.9-0.3c0.4-0.4,0.6-0.8,0.6-1.4s-0.2-1.2-0.6-1.6
		C124.4,23.5,123.8,23.3,123,23.3z"/>
    <path id="XMLID_179_" class="st0" d="M28,36.3h7.5v-7.2l-3.3-1.6c-1.3-0.6-2.1-1.9-2.1-3.3s0.8-2.7,2.1-3.3l3.2-1.5V19l-7.2-2.9
		L28,36.3z"/>
    <path id="XMLID_182_" class="st1" d="M40.4,31.5l0.2,0.1l0-0.1c0.1,0,0.2,0,0.3,0c2.3,0,4.1-3.1,4.1-7.3s-1.8-7.3-4.1-7.3
		c-0.7,0-1.2,0.3-1.7,0.8l-1.8,0.9v-0.8l-8.9-3.3l-16.1,3v0.8v18.2v1.6h25v-8.4l2,1.1C39.9,31.2,40,31.4,40.4,31.5z M26.5,30.6
		c-0.3,0.7-0.6,1.4-1.1,2c-0.5,0.6-1.1,1.1-1.9,1.5c-0.7,0.4-1.6,0.7-2.6,0.8c-1.9,0.3-3.1-0.1-4.1-1c-1-0.9-1.3-2.4-1.3-4.5v-3.4
		c0-2,0.3-3.6,1.3-4.9c1-1.3,2.4-2.1,4.2-2.4c1-0.2,1.7-0.2,2.5,0c0.7,0.2,1.3,0.5,1.8,0.9c0.5,0.4,0.7,1,1,1.6
		c0.3,0.7,0.2,1.4,0.2,2.2v0.3l-1.9,0.3l0.1-0.3c0-0.5-0.1-1-0.2-1.5c-0.2-0.5-0.4-0.8-0.7-1.2c-0.3-0.3-0.7-0.5-1.2-0.7
		c-0.5-0.1-1.1-0.1-1.7,0c-1.3,0.2-2.3,0.8-2.9,1.8c-0.6,1-1,2.2-1,3.6l0,3.2c0,1.5,0.3,2.7,1,3.4c0.7,0.7,1.6,1,2.9,0.8
		c0.7-0.1,1.3-0.3,1.8-0.6c0.5-0.3,0.9-0.6,1.2-1c0.3-0.4,0.5-0.9,0.7-1.4c0.1-0.5,0.2-1,0.2-1.5l0-0.3l2-0.3l0,0.3
		C26.9,29,26.7,29.8,26.5,30.6z M23.5,26v1.4l-3,0.4v3.2l-2,0.1v-7.8l5-0.6v1.4l-3,0.4v1.8L23.5,26z M35.5,19.4l-3.2,1.5
		c-1.3,0.6-2.1,1.9-2.1,3.3s0.8,2.7,2.1,3.3l3.3,1.6v7.2H28l0.3-20.2l7.2,2.9V19.4z M41,18.6c1.2,0,2.5,2.4,2.5,5.7
		c0,3.3-1.3,5.7-2.5,5.7s-2.5-2.4-2.5-5.7C38.5,21,39.8,18.6,41,18.6z"/>
    <polygon id="XMLID_186_" class="st1" points="10.5,22.2 10.6,19 0.8,21 1,38.3 10.5,38.3 	"/>
    <path id="XMLID_189_" class="st1" d="M33.2,13.9l0.3-0.8c0.1-0.3,2.2-6.6-3.1-11.3l-0.1-0.1l-3.7-1.6l-0.1,0
		c-0.2,0-4.1-0.6-7.4,2.2c-2.7,2.2-4.1,5.9-4.3,11l0,1l13.6-2.4L33.2,13.9z M29.4,3c3.4,3.1,3.1,7,2.7,8.7l-2.9-1.3
		c0-3.4-1.2-6.6-2.1-8.4L29.4,3z"/>
    <path id="XMLID_192_" class="st1" d="M12,15.9l0.3-0.7c0.1-0.2,1.5-3.8-2-6.9l-0.1-0.1l-2.4-1l-0.1,0C7.5,7.2,5,7,2.8,8.9
		c-1.7,1.6-2.7,4-2.8,7.2l0,1.1l8.8-2.2L12,15.9z M9.3,9.6c1.7,1.6,1.8,3.4,1.6,4.3l-1.3-0.3c0-1.6-0.5-3.2-1-4.3L9.3,9.6z"/>
  </g>
</svg>
